<svg xmlns="http://www.w3.org/2000/svg" viewBox="8.1 55.9 177.4 117.6">
<!-- SVG created with Arrow, by QuiverAI (https://quiver.ai) -->
  <style type="text/css">* {fill:#000100;}</style>
  <path d="m176 164-4.7-4.1-4.1-1c-2.1-0.5-15.8-13.1-18.2-15s-5.2-7.1-5.6-9.3l2 1.3c0.8 0.6 2.9-1.3 3-1.9s-2.3-5.4-4.7-8.7c1-0.7 1.9-1.5 1.9-1.9 0.7 0.2 2.6 0.2 0.4-3.2v-1.1l2.2 2 0.3-0.8-1.3-4.2 2.3 1.9 0.6-0.6-1.4-3.4 0.6-0.5 2.6 2.1 0.8-0.4-1.1-2.5 1.6 1.3 0.4-0.6-0.7-1.4h1.4l-0.1-1.4 0.7 0.3 0.7 0.4-0.4-2 2 1.5 0.4-0.7-0.8-1.9 2.1 1.4 0.5-0.7-0.8-2.2 0.8-0.3c0.7 1 1.3 1.7 3 1.3s0.5-2.7 0.2-3.1l0.7 0.4 2.8 0.2 1-0.6-0.6-1.5h2.9l0.3-0.4-0.6-1.3 1.7 0.4 0.4-0.8-2.4-1.1 2.3-0.1 0.3-0.9-2.1-0.4 0.6-0.5-2.5-0.5-0.4-0.9c3.8 0 5.8 0.2 5.5-1.9l-4-0.9 0.5-0.4c3.4-0.5 5.8-1.8 6.3-3.4l-2.9-0.5c1.4-0.2 4.4-2.9 4.5-3l-0.2-1 1-1-0.8-1 2.2-2.1v-0.6h-2.1l2.6-2.1-0.2-0.5h-1.8l1.5-1.3v-1.5l-1.8 0.2 0.8-1.6-0.8-0.8-4.5 2.2c3.9-2.4 5.6-4.4 4.8-8-0.8-1.4-1.7-0.9-2.5 0.4 0.4-2.2-0.1-2.7-0.9-3.7-1.3-0.5-1.5 2-1.7 3.3-0.7 2.7-6.1 8.3-7.5 8.2l-0.5-0.2c0.7-0.9 5.4-4 4.7-9.7-0.5-4.1-4.4-4.8-4.6-1.2-0.2 4.1-2 7.7-3.1 9.6 1.9-5.6 3.1-10.1 1.7-11.8-4.2-4.9-4.8 3.3-6 10.1-1.8 7.7-6.7 8.4-8.8 11.1-1.8 1.6 1.7 7.1-5.2 9.2-4.2 1.1-7.2 3.9-10.8 6.7-2.4 1.7-7.8 5.6-10.8 7.8-2.6-0.3-10.2-0.3-13.1-0.1-4 0.1-10.6-7.5-11.2-9.3 0.6-0.3-0.2-5.9-1.5-6.6-1.9-0.8-3.6-0.6-4.3 0-1-0.3-6.9-4-7.8-4.1l-0.2 0.7 6.9 5.3c2.3 2.5 4.2 7.3 10.5 14l6 6.5c-2.7 0.5-7.3 1.8-10.5 3.8-6.3 4.6-11.5 6.8-19.9 7-5.5 0-7.4 1.1-10.4 2.3-18 6.7-42.1 5.7-53.6 3.7-2.5 1.2 5.4 4.5 22.4 5.2l7.8-0.2-0.5 0.5c-4.7 0.8-15.8 2.1-27.7-0.5-3.3 1.1 6.2 3.8 18.4 3.2 5.2-0.2 11.6-1 12.1-1.4-0.8 1-4.9 2.2-8.6 2.3v0.7c2.2 0.3 10-0.8 12-2.3l-3.1 2.1 0.2 0.9 2.9-0.4h2c-0.2 1.9 2.2 1.1 4.4 1.1s3.1 0.4 5.3 0c2.1-0.2 4.5-0.7 4.5-1.1l-0.1 1.7c0.7 0.9 4.9-1.2 6.1-1.2l0.2 1.1 5.1-0.5v-0.6c1 0 0.7 0.9 1 1.1h2.6l1.1-0.2 0.8 0.6c2.1 0.1 4.8-1.3 5.5-2l-0.3 1.1c2.8 0.5 5.3-1 6.9-3l2.3 3.3c4.1 0.2 4.3-1.4 4.2-5.4l3.2 3.6 0.9 0.5 0.5-1v-2l2.5 2.3 0.8-0.5v-2.8l1.5 1.3 1.3-0.3v-2.6l2.4 1.5 0.6-0.6-0.3-1.5 0.5-0.3 2.1 1.5 0.9-0.6-0.9-1.9 2.5 0.5 0.7-1.1-1.7-1.6 3.4 1 1.1-0.5 5.9 4.8 3.2 2.2c3.6 2 9 5.7 10.6 8.1 1 2.5 3.3 3.7 5.1 3.1 3.1 0.6 20.8 13.8 22.4 14.4l3.7 4 3.2 0.1-2.9-2.2 0.8-0.4 2 1.2 2.4-0.2-2.4-2.5z"/>
</svg>